<svg width="44" height="46" viewBox="0 0 44 46" fill="none" xmlns="http://www.w3.org/2000/svg">
<g id="apple">
<path id="bg" d="M40.8076 22.6182C40.8076 33.5423 32.2852 42.4083 21.7632 42.4083C11.2411 42.4083 2.71875 33.5423 2.71875 22.6182C2.71875 11.6842 11.2411 2.82812 21.7632 2.82812C32.2852 2.82812 40.8076 11.6842 40.8076 22.6182Z" fill="#283544"/>
<path id="apple_2" d="M30.691 17.6129C30.587 17.6759 28.1131 19.0054 28.1131 21.9532C28.2297 25.3151 31.2351 26.494 31.2866 26.494C31.2351 26.557 30.8329 28.1001 29.6416 29.7176C28.6961 31.1109 27.6467 32.5157 26.0532 32.5157C24.5374 32.5157 23.9933 31.5871 22.2443 31.5871C20.366 31.5871 19.8346 32.5157 18.3965 32.5157C16.803 32.5157 15.6759 31.0356 14.6789 29.6554C13.3836 27.8489 12.2827 25.014 12.2438 22.2919C12.2176 20.8495 12.5032 19.4317 13.2282 18.2273C14.2514 16.546 16.0781 15.4047 18.0729 15.367C19.6014 15.3171 20.9617 16.3832 21.8945 16.3832C22.7884 16.3832 24.4597 15.367 26.3506 15.367C27.1668 15.3678 29.3433 15.6059 30.691 17.6129ZM21.7652 15.079C21.4932 13.7618 22.2443 12.4446 22.9439 11.6043C23.8378 10.5881 25.2497 9.89844 26.4672 9.89844C26.5449 11.2157 26.0524 12.5076 25.1719 13.4484C24.3819 14.4646 23.0216 15.2296 21.7652 15.079Z" fill="white"/>
</g>
</svg>
