<svg width="42" height="42" viewBox="0 0 42 42" fill="none" xmlns="http://www.w3.org/2000/svg">
<g id="google">
<path id="vector" d="M39.408 21.13C39.408 19.6387 39.2845 18.5504 39.0173 17.4219H21.6406V24.1528H31.8403C31.6348 25.8256 30.5243 28.3447 28.0566 30.0374L28.022 30.2628L33.5162 34.4339L33.8968 34.4712C37.3927 31.3071 39.408 26.6518 39.408 21.13" fill="#4285F4"/>
<path id="vector_2" d="M21.6351 38.863C26.6321 38.863 30.8271 37.2507 33.8913 34.4696L28.051 30.0359C26.4882 31.104 24.3906 31.8496 21.6351 31.8496C16.7409 31.8496 12.587 28.6857 11.1062 24.3125L10.8892 24.3306L5.17627 28.6635L5.10156 28.867C8.14501 34.792 14.3965 38.863 21.6351 38.863Z" fill="#34A853"/>
<path id="vector_3" d="M11.1116 24.3173C10.7209 23.1887 10.4948 21.9795 10.4948 20.7301C10.4948 19.4805 10.7209 18.2714 11.091 17.1428L11.0807 16.9025L5.29618 12.5L5.10692 12.5882C3.85256 15.0469 3.13281 17.8079 3.13281 20.7301C3.13281 23.6522 3.85256 26.4131 5.10692 28.8717L11.1116 24.3173" fill="#FBBC05"/>
<path id="vector_4" d="M21.6352 9.60689C25.1105 9.60689 27.4548 11.078 28.7915 12.3075L34.0148 7.30952C30.8068 4.38736 26.6322 2.59375 21.6352 2.59375C14.3965 2.59375 8.14503 6.66459 5.10156 12.5895L11.0857 17.1441C12.587 12.7709 16.741 9.60689 21.6352 9.60689" fill="#EB4335"/>
</g>
</svg>
