<svg width="17" height="17" viewBox="0 0 17 17" fill="none" xmlns="http://www.w3.org/2000/svg">
<g id="message 1">
<g id="Group">
<g id="Group_2">
<path id="Vector" d="M1.49414 2.67969H15.5059C16.3297 2.67969 17 3.34996 17 4.17383V12.8326C17 13.6565 16.3297 14.3267 15.5059 14.3267H1.49414C0.670271 14.3267 0 13.6565 0 12.8326V4.17383C0 3.34996 0.670271 2.67969 1.49414 2.67969ZM1.68914 3.67578L1.88856 3.84183L7.90719 8.85354C8.25071 9.13955 8.74936 9.13955 9.09281 8.85354L15.1114 3.84183L15.3109 3.67578H1.68914ZM16.0039 4.39489L11.1001 8.47831L16.0039 11.7419V4.39489ZM1.49414 13.3307H15.5059C15.7465 13.3307 15.9478 13.1591 15.9939 12.9319L10.3014 9.14334L9.73018 9.61901C9.37377 9.91578 8.93685 10.0642 8.49997 10.0642C8.06308 10.0642 7.62619 9.91578 7.26976 9.61901L6.69853 9.14334L1.00605 12.9318C1.05221 13.1591 1.25348 13.3307 1.49414 13.3307ZM0.996094 11.7419L5.89993 8.47835L0.996094 4.39489V11.7419Z" fill="#000842"/>
</g>
</g>
</g>
</svg>
