<svg width="17" height="17" viewBox="0 0 17 17" fill="none" xmlns="http://www.w3.org/2000/svg">
<g id="padlock 1">
<g id="Group">
<g id="Group_2">
<path id="Vector" d="M13.0068 7.2296V4.53742C13.014 3.31927 12.5274 2.14798 11.6589 1.29383C10.8191 0.457706 9.71992 0 8.55584 0C8.53782 0 8.51619 0 8.49817 0C6.01503 0.00360399 3.99679 2.03625 3.99679 4.53742V7.2296C3.05976 7.34132 2.375 8.12699 2.375 9.07844V15.1259C2.375 16.1531 3.19671 17 4.22384 17H12.7833C13.8104 17 14.6322 16.1531 14.6322 15.1259V9.07844C14.6285 8.13059 13.9438 7.34132 13.0068 7.2296ZM4.71399 4.53742H4.71759C4.71759 2.43269 6.41507 0.709985 8.50178 0.709985H8.50538C9.49648 0.706381 10.4479 1.09922 11.1507 1.79839C11.8823 2.52279 12.2896 3.51028 12.2824 4.53742V7.2332H11.4895V4.53742C11.4967 3.71931 11.1723 2.93364 10.5921 2.35701C10.0443 1.8092 9.30186 1.49926 8.527 1.49926H8.50538C6.84755 1.49926 5.50686 2.86156 5.50686 4.53381V7.2332H4.71399V4.53742V4.53742ZM10.7723 4.53742V7.2332H6.23126V4.53742C6.23126 3.26161 7.24759 2.22366 8.50898 2.22366H8.53061C9.11445 2.22366 9.67667 2.45792 10.0911 2.87238C10.5308 3.31206 10.7795 3.91393 10.7723 4.53742ZM13.9438 15.1367C13.9438 15.7674 13.432 16.2792 12.8013 16.2792H4.23826C3.60756 16.2792 3.0958 15.7674 3.0958 15.1367V9.09646C3.0958 8.46576 3.60756 7.954 4.23826 7.954H12.8013C13.432 7.954 13.9438 8.46576 13.9438 9.09646V15.1367Z" fill="#000842"/>
</g>
</g>
<g id="Group_3">
<g id="Group_4">
<path id="Vector_2" d="M9.74333 11.8938C9.58476 11.3351 9.07659 10.9531 8.49635 10.9531C7.77916 10.9531 7.19531 11.5334 7.19531 12.2542C7.19531 12.8344 7.57734 13.3426 8.13595 13.5011V14.5103C8.13595 14.7085 8.29813 14.8707 8.49635 14.8707C8.69457 14.8707 8.85675 14.7085 8.85675 14.5103V13.5011C9.54511 13.3029 9.94515 12.5821 9.74333 11.8938ZM8.49635 12.8308C8.1756 12.8308 7.91611 12.5713 7.91611 12.2506C7.91611 11.9298 8.1756 11.6703 8.49635 11.6703C8.81711 11.6703 9.07659 11.9298 9.07659 12.2506C9.07659 12.5713 8.81711 12.8308 8.49635 12.8308Z" fill="#000842"/>
</g>
</g>
</g>
</svg>
