<svg width="14" height="14" viewBox="0 0 14 14" fill="none" xmlns="http://www.w3.org/2000/svg">
<g id="invisible 1" clip-path="url(#clip0_621_123)">
<g id="Group">
<g id="Group_2">
<g id="Group_3">
<path id="Vector" d="M6.89062 4.78298L8.89472 6.78707L8.90426 6.6821C8.90426 5.62914 8.04855 4.77344 6.9956 4.77344L6.89062 4.78298Z" fill="#ABABAB"/>
<path id="Vector_2" d="M6.99623 3.49679C8.7522 3.49679 10.1773 4.92193 10.1773 6.67789C10.1773 7.08825 10.0946 7.47953 9.95149 7.83898L11.8124 9.69992C12.7731 8.89829 13.5302 7.86126 13.9978 6.67789C12.894 3.8849 10.1805 1.90625 6.99626 1.90625C6.10554 1.90625 5.25303 2.06529 4.46094 2.35159L5.83517 3.72264C6.1946 3.58268 6.58587 3.49679 6.99623 3.49679Z" fill="#ABABAB"/>
<path id="Vector_3" d="M0.636209 1.7643L2.08679 3.21488L2.37628 3.50437C1.32652 4.3251 0.496251 5.41622 0 6.6791C1.10067 9.47209 3.81731 11.4507 6.99842 11.4507C7.98457 11.4507 8.92616 11.2599 9.78825 10.9131L10.0587 11.1835L11.9132 13.0413L12.7244 12.2333L1.44739 0.953125L0.636209 1.7643ZM4.15452 5.27942L5.13748 6.26238C5.10885 6.39918 5.08976 6.53595 5.08976 6.6791C5.08976 7.73205 5.94547 8.58775 6.99842 8.58775C7.14157 8.58775 7.27836 8.56867 7.41197 8.54004L8.39493 9.523C7.97183 9.73295 7.50105 9.8602 6.99842 9.8602C5.24245 9.8602 3.81731 8.43506 3.81731 6.6791C3.81731 6.17649 3.94457 5.70568 4.15452 5.27942Z" fill="#ABABAB"/>
</g>
</g>
</g>
</g>
<defs>
<clipPath id="clip0_621_123">
<rect width="14" height="14" fill="white"/>
</clipPath>
</defs>
</svg>
